<mxfile host="app.diagrams.net" agent="Mozilla/5.0 (Windows NT 10.0; Win64; x64) AppleWebKit/537.36 (KHTML, like Gecko) Chrome/128.0.0.0 Safari/537.36" version="24.7.14" pages="2">
  <diagram id="Ht1M8jgEwFfnCIfOTk4-" name="Page-1">
    <mxGraphModel dx="1221" dy="759" grid="1" gridSize="10" guides="1" tooltips="1" connect="1" arrows="1" fold="1" page="1" pageScale="1" pageWidth="1169" pageHeight="827" math="0" shadow="0">
      <root>
        <mxCell id="0" />
        <mxCell id="1" parent="0" />
        <mxCell id="pAoqlpPOBiwx2Syj_GZs-3" value="AWS Cloud" style="points=[[0,0],[0.25,0],[0.5,0],[0.75,0],[1,0],[1,0.25],[1,0.5],[1,0.75],[1,1],[0.75,1],[0.5,1],[0.25,1],[0,1],[0,0.75],[0,0.5],[0,0.25]];outlineConnect=0;gradientColor=none;html=1;whiteSpace=wrap;fontSize=12;fontStyle=0;container=1;pointerEvents=0;collapsible=0;recursiveResize=0;shape=mxgraph.aws4.group;grIcon=mxgraph.aws4.group_aws_cloud_alt;strokeColor=#232F3E;fillColor=none;verticalAlign=top;align=left;spacingLeft=30;fontColor=#232F3E;dashed=0;" parent="1" vertex="1">
          <mxGeometry x="700" y="650" width="770" height="270" as="geometry" />
        </mxCell>
        <mxCell id="pAoqlpPOBiwx2Syj_GZs-4" value="VPC" style="points=[[0,0],[0.25,0],[0.5,0],[0.75,0],[1,0],[1,0.25],[1,0.5],[1,0.75],[1,1],[0.75,1],[0.5,1],[0.25,1],[0,1],[0,0.75],[0,0.5],[0,0.25]];outlineConnect=0;gradientColor=none;html=1;whiteSpace=wrap;fontSize=12;fontStyle=0;container=1;pointerEvents=0;collapsible=0;recursiveResize=0;shape=mxgraph.aws4.group;grIcon=mxgraph.aws4.group_vpc2;strokeColor=#8C4FFF;fillColor=none;verticalAlign=top;align=left;spacingLeft=30;fontColor=#AAB7B8;dashed=0;" parent="pAoqlpPOBiwx2Syj_GZs-3" vertex="1">
          <mxGeometry x="10" y="30" width="740" height="230" as="geometry" />
        </mxCell>
        <mxCell id="pAoqlpPOBiwx2Syj_GZs-67" style="edgeStyle=orthogonalEdgeStyle;rounded=0;orthogonalLoop=1;jettySize=auto;html=1;exitX=1;exitY=0.5;exitDx=0;exitDy=0;exitPerimeter=0;" parent="pAoqlpPOBiwx2Syj_GZs-4" source="pAoqlpPOBiwx2Syj_GZs-6" target="pAoqlpPOBiwx2Syj_GZs-8" edge="1">
          <mxGeometry relative="1" as="geometry" />
        </mxCell>
        <mxCell id="pAoqlpPOBiwx2Syj_GZs-6" value="" style="sketch=0;points=[[0,0,0],[0.25,0,0],[0.5,0,0],[0.75,0,0],[1,0,0],[0,1,0],[0.25,1,0],[0.5,1,0],[0.75,1,0],[1,1,0],[0,0.25,0],[0,0.5,0],[0,0.75,0],[1,0.25,0],[1,0.5,0],[1,0.75,0]];points=[[0,0,0],[0.25,0,0],[0.5,0,0],[0.75,0,0],[1,0,0],[0,1,0],[0.25,1,0],[0.5,1,0],[0.75,1,0],[1,1,0],[0,0.25,0],[0,0.5,0],[0,0.75,0],[1,0.25,0],[1,0.5,0],[1,0.75,0]];outlineConnect=0;fontColor=#232F3E;fillColor=#E7157B;strokeColor=#ffffff;dashed=0;verticalLabelPosition=bottom;verticalAlign=top;align=center;html=1;fontSize=12;fontStyle=0;aspect=fixed;shape=mxgraph.aws4.resourceIcon;resIcon=mxgraph.aws4.cloudwatch_2;" parent="pAoqlpPOBiwx2Syj_GZs-4" vertex="1">
          <mxGeometry x="220" y="60" width="78" height="78" as="geometry" />
        </mxCell>
        <mxCell id="pAoqlpPOBiwx2Syj_GZs-7" value="" style="sketch=0;points=[[0,0,0],[0.25,0,0],[0.5,0,0],[0.75,0,0],[1,0,0],[0,1,0],[0.25,1,0],[0.5,1,0],[0.75,1,0],[1,1,0],[0,0.25,0],[0,0.5,0],[0,0.75,0],[1,0.25,0],[1,0.5,0],[1,0.75,0]];outlineConnect=0;fontColor=#232F3E;fillColor=#ED7100;strokeColor=#ffffff;dashed=0;verticalLabelPosition=bottom;verticalAlign=top;align=center;html=1;fontSize=12;fontStyle=0;aspect=fixed;shape=mxgraph.aws4.resourceIcon;resIcon=mxgraph.aws4.ec2;" parent="pAoqlpPOBiwx2Syj_GZs-4" vertex="1">
          <mxGeometry x="39" y="60" width="78" height="78" as="geometry" />
        </mxCell>
        <mxCell id="pAoqlpPOBiwx2Syj_GZs-65" style="edgeStyle=orthogonalEdgeStyle;rounded=0;orthogonalLoop=1;jettySize=auto;html=1;exitX=1;exitY=0.5;exitDx=0;exitDy=0;exitPerimeter=0;" parent="pAoqlpPOBiwx2Syj_GZs-4" source="pAoqlpPOBiwx2Syj_GZs-8" target="pAoqlpPOBiwx2Syj_GZs-10" edge="1">
          <mxGeometry relative="1" as="geometry" />
        </mxCell>
        <mxCell id="pAoqlpPOBiwx2Syj_GZs-8" value="" style="sketch=0;points=[[0,0,0],[0.25,0,0],[0.5,0,0],[0.75,0,0],[1,0,0],[0,1,0],[0.25,1,0],[0.5,1,0],[0.75,1,0],[1,1,0],[0,0.25,0],[0,0.5,0],[0,0.75,0],[1,0.25,0],[1,0.5,0],[1,0.75,0]];outlineConnect=0;fontColor=#232F3E;fillColor=#E7157B;strokeColor=#ffffff;dashed=0;verticalLabelPosition=bottom;verticalAlign=top;align=center;html=1;fontSize=12;fontStyle=0;aspect=fixed;shape=mxgraph.aws4.resourceIcon;resIcon=mxgraph.aws4.sns;" parent="pAoqlpPOBiwx2Syj_GZs-4" vertex="1">
          <mxGeometry x="400" y="60" width="78" height="78" as="geometry" />
        </mxCell>
        <mxCell id="pAoqlpPOBiwx2Syj_GZs-10" value="" style="sketch=0;outlineConnect=0;fontColor=#232F3E;gradientColor=none;fillColor=#E7157B;strokeColor=none;dashed=0;verticalLabelPosition=bottom;verticalAlign=top;align=center;html=1;fontSize=12;fontStyle=0;aspect=fixed;pointerEvents=1;shape=mxgraph.aws4.email_notification;" parent="pAoqlpPOBiwx2Syj_GZs-4" vertex="1">
          <mxGeometry x="590" y="60" width="78" height="78" as="geometry" />
        </mxCell>
        <mxCell id="pAoqlpPOBiwx2Syj_GZs-11" value="&lt;b&gt;&lt;font style=&quot;font-size: 14px;&quot;&gt;CloudWatch&lt;/font&gt;&lt;/b&gt;" style="text;html=1;align=center;verticalAlign=middle;resizable=0;points=[];autosize=1;strokeColor=none;fillColor=none;" parent="pAoqlpPOBiwx2Syj_GZs-4" vertex="1">
          <mxGeometry x="209" y="138" width="100" height="30" as="geometry" />
        </mxCell>
        <mxCell id="pAoqlpPOBiwx2Syj_GZs-12" value="&lt;b&gt;&lt;font style=&quot;font-size: 14px;&quot;&gt;EC2&lt;/font&gt;&lt;/b&gt;" style="text;html=1;align=center;verticalAlign=middle;resizable=0;points=[];autosize=1;strokeColor=none;fillColor=none;" parent="pAoqlpPOBiwx2Syj_GZs-4" vertex="1">
          <mxGeometry x="53" y="138" width="50" height="30" as="geometry" />
        </mxCell>
        <mxCell id="pAoqlpPOBiwx2Syj_GZs-13" value="&lt;b&gt;&lt;font style=&quot;font-size: 14px;&quot;&gt;Simple Notification&lt;/font&gt;&lt;/b&gt;&lt;div&gt;&lt;b&gt;&lt;font style=&quot;font-size: 14px;&quot;&gt;&amp;nbsp;Service&lt;/font&gt;&lt;/b&gt;&lt;/div&gt;" style="text;html=1;align=center;verticalAlign=middle;resizable=0;points=[];autosize=1;strokeColor=none;fillColor=none;" parent="pAoqlpPOBiwx2Syj_GZs-4" vertex="1">
          <mxGeometry x="364" y="138" width="150" height="50" as="geometry" />
        </mxCell>
        <mxCell id="pAoqlpPOBiwx2Syj_GZs-14" value="&lt;b&gt;&lt;font style=&quot;font-size: 14px;&quot;&gt;Email&amp;nbsp;&lt;/font&gt;&lt;/b&gt;&lt;div&gt;&lt;b&gt;&lt;font style=&quot;font-size: 14px;&quot;&gt;Notification&lt;/font&gt;&lt;/b&gt;&lt;/div&gt;" style="text;html=1;align=center;verticalAlign=middle;resizable=0;points=[];autosize=1;strokeColor=none;fillColor=none;" parent="pAoqlpPOBiwx2Syj_GZs-4" vertex="1">
          <mxGeometry x="580" y="138" width="100" height="50" as="geometry" />
        </mxCell>
        <mxCell id="pAoqlpPOBiwx2Syj_GZs-66" style="edgeStyle=orthogonalEdgeStyle;rounded=0;orthogonalLoop=1;jettySize=auto;html=1;exitX=1;exitY=0.5;exitDx=0;exitDy=0;exitPerimeter=0;entryX=0;entryY=0.5;entryDx=0;entryDy=0;entryPerimeter=0;" parent="pAoqlpPOBiwx2Syj_GZs-4" source="pAoqlpPOBiwx2Syj_GZs-7" target="pAoqlpPOBiwx2Syj_GZs-6" edge="1">
          <mxGeometry relative="1" as="geometry" />
        </mxCell>
      </root>
    </mxGraphModel>
  </diagram>
  <diagram id="gMVQooKqJ9PJYzIZN5MW" name="Page-2">
    <mxGraphModel dx="1221" dy="-68" grid="1" gridSize="10" guides="1" tooltips="1" connect="1" arrows="1" fold="1" page="1" pageScale="1" pageWidth="1169" pageHeight="827" math="0" shadow="0">
      <root>
        <mxCell id="0" />
        <mxCell id="1" parent="0" />
        <mxCell id="WdcknWMdDfSQy6G5WTpb-1" value="AWS Cloud" style="points=[[0,0],[0.25,0],[0.5,0],[0.75,0],[1,0],[1,0.25],[1,0.5],[1,0.75],[1,1],[0.75,1],[0.5,1],[0.25,1],[0,1],[0,0.75],[0,0.5],[0,0.25]];outlineConnect=0;gradientColor=none;html=1;whiteSpace=wrap;fontSize=12;fontStyle=0;container=1;pointerEvents=0;collapsible=0;recursiveResize=0;shape=mxgraph.aws4.group;grIcon=mxgraph.aws4.group_aws_cloud_alt;strokeColor=#232F3E;fillColor=none;verticalAlign=top;align=left;spacingLeft=30;fontColor=#232F3E;dashed=0;" vertex="1" parent="1">
          <mxGeometry x="585" y="970" width="910" height="560" as="geometry" />
        </mxCell>
        <mxCell id="WdcknWMdDfSQy6G5WTpb-2" value="VPC" style="points=[[0,0],[0.25,0],[0.5,0],[0.75,0],[1,0],[1,0.25],[1,0.5],[1,0.75],[1,1],[0.75,1],[0.5,1],[0.25,1],[0,1],[0,0.75],[0,0.5],[0,0.25]];outlineConnect=0;gradientColor=none;html=1;whiteSpace=wrap;fontSize=12;fontStyle=0;container=1;pointerEvents=0;collapsible=0;recursiveResize=0;shape=mxgraph.aws4.group;grIcon=mxgraph.aws4.group_vpc2;strokeColor=#8C4FFF;fillColor=none;verticalAlign=top;align=left;spacingLeft=30;fontColor=#AAB7B8;dashed=0;" vertex="1" parent="WdcknWMdDfSQy6G5WTpb-1">
          <mxGeometry x="20" y="30" width="871.25" height="509" as="geometry" />
        </mxCell>
        <mxCell id="WdcknWMdDfSQy6G5WTpb-3" value="&lt;b&gt;Security group [ Listening HTTP Traffic ]&lt;/b&gt;" style="fillColor=none;strokeColor=#DD3522;verticalAlign=top;fontStyle=0;fontColor=#DD3522;whiteSpace=wrap;html=1;" vertex="1" parent="WdcknWMdDfSQy6G5WTpb-2">
          <mxGeometry x="16.25" y="99" width="373.75" height="210" as="geometry" />
        </mxCell>
        <mxCell id="WdcknWMdDfSQy6G5WTpb-4" value="&lt;b&gt;Security group [ Listening Traffic from ALB ]&lt;/b&gt;" style="fillColor=none;strokeColor=#DD3522;verticalAlign=top;fontStyle=0;fontColor=#DD3522;whiteSpace=wrap;html=1;" vertex="1" parent="WdcknWMdDfSQy6G5WTpb-2">
          <mxGeometry x="405" y="99" width="456.75" height="210" as="geometry" />
        </mxCell>
        <mxCell id="WdcknWMdDfSQy6G5WTpb-5" value="&lt;b&gt;&lt;font style=&quot;font-size: 14px;&quot;&gt;EC2&lt;/font&gt;&lt;/b&gt;" style="sketch=0;points=[[0,0,0],[0.25,0,0],[0.5,0,0],[0.75,0,0],[1,0,0],[0,1,0],[0.25,1,0],[0.5,1,0],[0.75,1,0],[1,1,0],[0,0.25,0],[0,0.5,0],[0,0.75,0],[1,0.25,0],[1,0.5,0],[1,0.75,0]];outlineConnect=0;fontColor=#232F3E;fillColor=#ED7100;strokeColor=#ffffff;dashed=0;verticalLabelPosition=bottom;verticalAlign=top;align=center;html=1;fontSize=12;fontStyle=0;aspect=fixed;shape=mxgraph.aws4.resourceIcon;resIcon=mxgraph.aws4.ec2;" vertex="1" parent="WdcknWMdDfSQy6G5WTpb-2">
          <mxGeometry x="455" y="146" width="78" height="78" as="geometry" />
        </mxCell>
        <mxCell id="WdcknWMdDfSQy6G5WTpb-6" style="edgeStyle=orthogonalEdgeStyle;rounded=0;orthogonalLoop=1;jettySize=auto;html=1;exitX=0;exitY=0.5;exitDx=0;exitDy=0;exitPerimeter=0;" edge="1" parent="WdcknWMdDfSQy6G5WTpb-2" source="WdcknWMdDfSQy6G5WTpb-7" target="WdcknWMdDfSQy6G5WTpb-9">
          <mxGeometry relative="1" as="geometry" />
        </mxCell>
        <mxCell id="WdcknWMdDfSQy6G5WTpb-7" value="&lt;b&gt;&lt;font style=&quot;font-size: 14px;&quot;&gt;EC2&lt;/font&gt;&lt;/b&gt;" style="sketch=0;points=[[0,0,0],[0.25,0,0],[0.5,0,0],[0.75,0,0],[1,0,0],[0,1,0],[0.25,1,0],[0.5,1,0],[0.75,1,0],[1,1,0],[0,0.25,0],[0,0.5,0],[0,0.75,0],[1,0.25,0],[1,0.5,0],[1,0.75,0]];outlineConnect=0;fontColor=#232F3E;fillColor=#ED7100;strokeColor=#ffffff;dashed=0;verticalLabelPosition=bottom;verticalAlign=top;align=center;html=1;fontSize=12;fontStyle=0;aspect=fixed;shape=mxgraph.aws4.resourceIcon;resIcon=mxgraph.aws4.ec2;" vertex="1" parent="WdcknWMdDfSQy6G5WTpb-2">
          <mxGeometry x="765" y="146" width="78" height="78" as="geometry" />
        </mxCell>
        <mxCell id="WdcknWMdDfSQy6G5WTpb-8" style="edgeStyle=orthogonalEdgeStyle;rounded=0;orthogonalLoop=1;jettySize=auto;html=1;exitX=0.5;exitY=1;exitDx=0;exitDy=0;exitPerimeter=0;" edge="1" parent="WdcknWMdDfSQy6G5WTpb-2" source="WdcknWMdDfSQy6G5WTpb-9" target="WdcknWMdDfSQy6G5WTpb-10">
          <mxGeometry relative="1" as="geometry">
            <Array as="points">
              <mxPoint x="545" y="289" />
              <mxPoint x="355" y="289" />
            </Array>
          </mxGeometry>
        </mxCell>
        <mxCell id="WdcknWMdDfSQy6G5WTpb-9" value="&lt;b&gt;&lt;font style=&quot;font-size: 14px;&quot;&gt;Auto Scaling&lt;/font&gt;&lt;/b&gt;&lt;div&gt;&lt;b&gt;&lt;font style=&quot;font-size: 14px;&quot;&gt;Group&lt;/font&gt;&lt;/b&gt;&lt;/div&gt;" style="sketch=0;points=[[0,0,0],[0.25,0,0],[0.5,0,0],[0.75,0,0],[1,0,0],[0,1,0],[0.25,1,0],[0.5,1,0],[0.75,1,0],[1,1,0],[0,0.25,0],[0,0.5,0],[0,0.75,0],[1,0.25,0],[1,0.5,0],[1,0.75,0]];outlineConnect=0;fontColor=#232F3E;fillColor=#ED7100;strokeColor=#ffffff;dashed=0;verticalLabelPosition=bottom;verticalAlign=top;align=center;html=1;fontSize=12;fontStyle=0;aspect=fixed;shape=mxgraph.aws4.resourceIcon;resIcon=mxgraph.aws4.auto_scaling2;" vertex="1" parent="WdcknWMdDfSQy6G5WTpb-2">
          <mxGeometry x="615.0000000000001" y="146" width="78" height="78" as="geometry" />
        </mxCell>
        <mxCell id="WdcknWMdDfSQy6G5WTpb-10" value="&lt;b&gt;&lt;font style=&quot;font-size: 14px;&quot;&gt;CloudWatch&lt;/font&gt;&lt;/b&gt;" style="sketch=0;points=[[0,0,0],[0.25,0,0],[0.5,0,0],[0.75,0,0],[1,0,0],[0,1,0],[0.25,1,0],[0.5,1,0],[0.75,1,0],[1,1,0],[0,0.25,0],[0,0.5,0],[0,0.75,0],[1,0.25,0],[1,0.5,0],[1,0.75,0]];points=[[0,0,0],[0.25,0,0],[0.5,0,0],[0.75,0,0],[1,0,0],[0,1,0],[0.25,1,0],[0.5,1,0],[0.75,1,0],[1,1,0],[0,0.25,0],[0,0.5,0],[0,0.75,0],[1,0.25,0],[1,0.5,0],[1,0.75,0]];outlineConnect=0;fontColor=#232F3E;fillColor=#E7157B;strokeColor=#ffffff;dashed=0;verticalLabelPosition=bottom;verticalAlign=top;align=center;html=1;fontSize=12;fontStyle=0;aspect=fixed;shape=mxgraph.aws4.resourceIcon;resIcon=mxgraph.aws4.cloudwatch_2;" vertex="1" parent="WdcknWMdDfSQy6G5WTpb-2">
          <mxGeometry x="455" y="358" width="78" height="78" as="geometry" />
        </mxCell>
        <mxCell id="WdcknWMdDfSQy6G5WTpb-11" value="&lt;b&gt;&lt;font style=&quot;font-size: 14px;&quot;&gt;Loan Balancer&lt;/font&gt;&lt;/b&gt;" style="outlineConnect=0;dashed=0;verticalLabelPosition=bottom;verticalAlign=top;align=center;html=1;shape=mxgraph.aws3.application_load_balancer;fillColor=#F58534;gradientColor=none;" vertex="1" parent="WdcknWMdDfSQy6G5WTpb-2">
          <mxGeometry x="145" y="149" width="69" height="72" as="geometry" />
        </mxCell>
        <mxCell id="WdcknWMdDfSQy6G5WTpb-12" value="&lt;b&gt;&lt;font style=&quot;font-size: 14px;&quot;&gt;Rule for Listener&lt;/font&gt;&lt;/b&gt;" style="sketch=0;outlineConnect=0;fontColor=#232F3E;gradientColor=none;fillColor=#E7157B;strokeColor=none;dashed=0;verticalLabelPosition=bottom;verticalAlign=top;align=center;html=1;fontSize=12;fontStyle=0;aspect=fixed;pointerEvents=1;shape=mxgraph.aws4.rule_3;" vertex="1" parent="WdcknWMdDfSQy6G5WTpb-2">
          <mxGeometry x="285" y="151" width="78" height="68" as="geometry" />
        </mxCell>
        <mxCell id="WdcknWMdDfSQy6G5WTpb-13" value="" style="endArrow=classic;html=1;rounded=0;exitX=1;exitY=0.5;exitDx=0;exitDy=0;exitPerimeter=0;" edge="1" parent="WdcknWMdDfSQy6G5WTpb-2" source="WdcknWMdDfSQy6G5WTpb-11" target="WdcknWMdDfSQy6G5WTpb-12">
          <mxGeometry width="50" height="50" relative="1" as="geometry">
            <mxPoint x="107.5" y="123" as="sourcePoint" />
            <mxPoint x="156.5" y="70" as="targetPoint" />
          </mxGeometry>
        </mxCell>
        <mxCell id="WdcknWMdDfSQy6G5WTpb-14" value="" style="endArrow=classic;html=1;rounded=0;entryX=0;entryY=0.5;entryDx=0;entryDy=0;entryPerimeter=0;" edge="1" parent="WdcknWMdDfSQy6G5WTpb-2" source="WdcknWMdDfSQy6G5WTpb-12" target="WdcknWMdDfSQy6G5WTpb-5">
          <mxGeometry width="50" height="50" relative="1" as="geometry">
            <mxPoint x="266.25" y="179" as="sourcePoint" />
            <mxPoint x="337.5" y="179" as="targetPoint" />
          </mxGeometry>
        </mxCell>
        <mxCell id="WdcknWMdDfSQy6G5WTpb-15" style="edgeStyle=orthogonalEdgeStyle;rounded=0;orthogonalLoop=1;jettySize=auto;html=1;exitX=1;exitY=0.5;exitDx=0;exitDy=0;exitPerimeter=0;entryX=0;entryY=0.5;entryDx=0;entryDy=0;entryPerimeter=0;" edge="1" parent="WdcknWMdDfSQy6G5WTpb-2" source="WdcknWMdDfSQy6G5WTpb-5" target="WdcknWMdDfSQy6G5WTpb-9">
          <mxGeometry relative="1" as="geometry" />
        </mxCell>
        <mxCell id="WdcknWMdDfSQy6G5WTpb-16" value="&lt;b&gt;&lt;font style=&quot;font-size: 14px;&quot;&gt;Launch Template&lt;/font&gt;&lt;/b&gt;" style="sketch=0;outlineConnect=0;fontColor=#232F3E;gradientColor=none;fillColor=#E7157B;strokeColor=none;dashed=0;verticalLabelPosition=bottom;verticalAlign=top;align=center;html=1;fontSize=12;fontStyle=0;aspect=fixed;pointerEvents=1;shape=mxgraph.aws4.template;" vertex="1" parent="WdcknWMdDfSQy6G5WTpb-2">
          <mxGeometry x="650" y="9" width="51.25" height="61.5" as="geometry" />
        </mxCell>
        <mxCell id="WdcknWMdDfSQy6G5WTpb-17" value="" style="endArrow=classic;html=1;rounded=0;entryX=0.45;entryY=-0.005;entryDx=0;entryDy=0;entryPerimeter=0;" edge="1" parent="WdcknWMdDfSQy6G5WTpb-2" source="WdcknWMdDfSQy6G5WTpb-16" target="WdcknWMdDfSQy6G5WTpb-4">
          <mxGeometry width="50" height="50" relative="1" as="geometry">
            <mxPoint x="514.25" y="64.75" as="sourcePoint" />
            <mxPoint x="516.25" y="89" as="targetPoint" />
            <Array as="points">
              <mxPoint x="611" y="40" />
            </Array>
          </mxGeometry>
        </mxCell>
        <mxCell id="WdcknWMdDfSQy6G5WTpb-18" value="&lt;b&gt;Triggered Alarm&lt;/b&gt;" style="text;html=1;align=center;verticalAlign=middle;resizable=0;points=[];autosize=1;strokeColor=none;fillColor=none;" vertex="1" parent="WdcknWMdDfSQy6G5WTpb-2">
          <mxGeometry x="578" y="364" width="120" height="30" as="geometry" />
        </mxCell>
        <mxCell id="WdcknWMdDfSQy6G5WTpb-19" value="&lt;b&gt;Based On&amp;nbsp;&lt;/b&gt;&lt;div&gt;&lt;b&gt;Scaling Policies&lt;/b&gt;&lt;/div&gt;" style="text;html=1;align=center;verticalAlign=middle;resizable=0;points=[];autosize=1;strokeColor=none;fillColor=none;" vertex="1" parent="WdcknWMdDfSQy6G5WTpb-2">
          <mxGeometry x="583" y="396" width="110" height="40" as="geometry" />
        </mxCell>
        <mxCell id="WdcknWMdDfSQy6G5WTpb-20" value="&lt;b&gt;Scale out&amp;nbsp;&lt;/b&gt;&lt;div&gt;&lt;b&gt;or&lt;/b&gt;&lt;div&gt;&lt;b&gt;scale in Instance&lt;/b&gt;&lt;/div&gt;&lt;/div&gt;" style="text;html=1;align=center;verticalAlign=middle;resizable=0;points=[];autosize=1;strokeColor=none;fillColor=none;" vertex="1" parent="WdcknWMdDfSQy6G5WTpb-2">
          <mxGeometry x="701.25" y="320" width="120" height="60" as="geometry" />
        </mxCell>
        <mxCell id="WdcknWMdDfSQy6G5WTpb-21" value="&lt;b&gt;&lt;font style=&quot;font-size: 14px;&quot;&gt;User&lt;/font&gt;&lt;/b&gt;" style="points=[[0.35,0,0],[0.98,0.51,0],[1,0.71,0],[0.67,1,0],[0,0.795,0],[0,0.65,0]];verticalLabelPosition=bottom;sketch=0;html=1;verticalAlign=top;aspect=fixed;align=center;pointerEvents=1;shape=mxgraph.cisco19.user;fillColor=#005073;strokeColor=none;" vertex="1" parent="WdcknWMdDfSQy6G5WTpb-2">
          <mxGeometry x="25" y="160" width="50" height="50" as="geometry" />
        </mxCell>
        <mxCell id="WdcknWMdDfSQy6G5WTpb-22" style="edgeStyle=orthogonalEdgeStyle;rounded=0;orthogonalLoop=1;jettySize=auto;html=1;exitX=0.98;exitY=0.51;exitDx=0;exitDy=0;exitPerimeter=0;entryX=0;entryY=0.5;entryDx=0;entryDy=0;entryPerimeter=0;" edge="1" parent="WdcknWMdDfSQy6G5WTpb-2" source="WdcknWMdDfSQy6G5WTpb-21" target="WdcknWMdDfSQy6G5WTpb-11">
          <mxGeometry relative="1" as="geometry" />
        </mxCell>
        <mxCell id="WdcknWMdDfSQy6G5WTpb-23" value="" style="outlineConnect=0;dashed=0;verticalLabelPosition=bottom;verticalAlign=top;align=center;html=1;shape=mxgraph.aws3.alarm;fillColor=#759C3E;gradientColor=none;" vertex="1" parent="WdcknWMdDfSQy6G5WTpb-2">
          <mxGeometry x="785" y="364" width="54" height="66" as="geometry" />
        </mxCell>
        <mxCell id="WdcknWMdDfSQy6G5WTpb-24" style="edgeStyle=orthogonalEdgeStyle;rounded=0;orthogonalLoop=1;jettySize=auto;html=1;exitX=1;exitY=0.5;exitDx=0;exitDy=0;exitPerimeter=0;entryX=0.04;entryY=0.5;entryDx=0;entryDy=0;entryPerimeter=0;" edge="1" parent="WdcknWMdDfSQy6G5WTpb-2" source="WdcknWMdDfSQy6G5WTpb-10" target="WdcknWMdDfSQy6G5WTpb-23">
          <mxGeometry relative="1" as="geometry" />
        </mxCell>
        <mxCell id="WdcknWMdDfSQy6G5WTpb-25" style="edgeStyle=orthogonalEdgeStyle;rounded=0;orthogonalLoop=1;jettySize=auto;html=1;exitX=0.5;exitY=0.42;exitDx=0;exitDy=0;exitPerimeter=0;entryX=0.891;entryY=0.997;entryDx=0;entryDy=0;entryPerimeter=0;" edge="1" parent="WdcknWMdDfSQy6G5WTpb-2" source="WdcknWMdDfSQy6G5WTpb-23" target="WdcknWMdDfSQy6G5WTpb-4">
          <mxGeometry relative="1" as="geometry" />
        </mxCell>
      </root>
    </mxGraphModel>
  </diagram>
</mxfile>
